<svg width="12" height="14" viewBox="0 0 12 14" fill="none" xmlns="http://www.w3.org/2000/svg">
<path d="M12 3C12 3.13261 11.9473 3.25979 11.8536 3.35355C11.7598 3.44732 11.6326 3.5 11.5 3.5H11V12.5C11 12.7652 10.8946 13.0196 10.7071 13.2071C10.5196 13.3946 10.2652 13.5 10 13.5H2C1.73478 13.5 1.48043 13.3946 1.29289 13.2071C1.10536 13.0196 1 12.7652 1 12.5V3.5H0.5C0.367392 3.5 0.240215 3.44732 0.146447 3.35355C0.0526785 3.25979 0 3.13261 0 3C0 2.86739 0.0526785 2.74021 0.146447 2.64645C0.240215 2.55268 0.367392 2.5 0.5 2.5H11.5C11.6326 2.5 11.7598 2.55268 11.8536 2.64645C11.9473 2.74021 12 2.86739 12 3ZM3.5 1.5H8.5C8.63261 1.5 8.75979 1.44732 8.85355 1.35355C8.94732 1.25979 9 1.13261 9 1C9 0.867392 8.94732 0.740215 8.85355 0.646447C8.75979 0.552678 8.63261 0.5 8.5 0.5H3.5C3.36739 0.5 3.24021 0.552678 3.14645 0.646447C3.05268 0.740215 3 0.867392 3 1C3 1.13261 3.05268 1.25979 3.14645 1.35355C3.24021 1.44732 3.36739 1.5 3.5 1.5Z" fill="#ED6468"/>
</svg>
