<svg width="20" height="18" viewBox="0 0 20 18" fill="none" xmlns="http://www.w3.org/2000/svg">
<path d="M19.3968 5.64403C19.1702 5.38733 18.8916 5.18179 18.5794 5.04103C18.2673 4.90028 17.9288 4.82753 17.5864 4.82764H13.1036V3.79315C13.1025 2.78749 12.7025 1.82335 11.9913 1.11225C11.2802 0.401141 10.3161 0.00114085 9.31045 0C9.11841 2.25203e-05 8.93016 0.0535003 8.76679 0.154446C8.60342 0.255391 8.47138 0.399819 8.38544 0.571558L5.22247 6.89663H1.72416C1.26688 6.89663 0.828336 7.07828 0.504994 7.40162C0.181652 7.72496 0 8.16351 0 8.62078V16.2071C0 16.6644 0.181652 17.1029 0.504994 17.4262C0.828336 17.7496 1.26688 17.9312 1.72416 17.9312H16.5519C17.1402 17.9311 17.7083 17.7162 18.1493 17.3268C18.5903 16.9374 18.8739 16.4003 18.9468 15.8166L19.9813 7.5406C20.0238 7.20111 19.9937 6.85644 19.8929 6.52947C19.7922 6.20249 19.623 5.90067 19.3968 5.64403ZM2.06899 8.96562H4.82764V15.8622H2.06899V8.96562ZM17.9312 7.28456L16.8967 15.5605C16.8862 15.6443 16.8452 15.7213 16.7817 15.7769C16.7181 15.8326 16.6364 15.8629 16.5519 15.8622H6.89663V8.17509L9.89839 2.17244C10.2313 2.2932 10.5189 2.51354 10.7222 2.80351C10.9255 3.09348 11.0346 3.43901 11.0346 3.79315V5.86213C11.0346 6.1365 11.1436 6.39963 11.3376 6.59363C11.5316 6.78764 11.7947 6.89663 12.0691 6.89663H17.5864C17.6356 6.89624 17.6842 6.90637 17.7291 6.92633C17.7741 6.94629 17.8142 6.97562 17.8468 7.01236C17.8795 7.04909 17.9039 7.09239 17.9185 7.13933C17.933 7.18628 17.9374 7.2358 17.9312 7.28456Z" fill="#67727E"/>
</svg>
