<svg width="14" height="12" viewBox="0 0 14 12" fill="none" xmlns="http://www.w3.org/2000/svg">
<path d="M0.146288 6.35375L5.14629 11.3537C5.21622 11.4238 5.30534 11.4714 5.40238 11.4908C5.49943 11.5101 5.60002 11.5002 5.69143 11.4623C5.78284 11.4244 5.86096 11.3603 5.9159 11.278C5.97083 11.1957 6.00012 11.0989 6.00004 11V8.51437C9.56879 8.71687 12.0157 11.0312 12.7025 11.7644C12.8104 11.8796 12.9518 11.9578 13.1067 11.9879C13.2616 12.0181 13.4221 11.9986 13.5653 11.9323C13.7084 11.8659 13.827 11.7561 13.9042 11.6185C13.9814 11.4809 14.0132 11.3224 13.995 11.1656C13.7632 9.14937 12.6588 7.21 10.885 5.705C9.41191 4.455 7.62129 3.66187 6.00004 3.52312V0.999997C6.00012 0.901049 5.97083 0.804303 5.9159 0.722006C5.86096 0.639709 5.78284 0.575562 5.69143 0.537686C5.60002 0.49981 5.49943 0.489907 5.40238 0.509232C5.30534 0.528558 5.21622 0.576241 5.14629 0.646247L0.146288 5.64625C0.0998001 5.69268 0.0629196 5.74783 0.0377579 5.80853C0.0125961 5.86923 -0.000354767 5.93429 -0.000354767 6C-0.000354767 6.0657 0.0125961 6.13077 0.0377579 6.19147C0.0629196 6.25217 0.0998001 6.30731 0.146288 6.35375Z" fill="#5457B6"/>
</svg>
